<svg width="8" height="8" viewBox="0 0 8 8" fill="none" xmlns="http://www.w3.org/2000/svg">
<path d="M7.90224 7.43097L5.62727 5.15599C6.06793 4.61167 6.33326 3.92001 6.33326 3.16669C6.33326 1.4207 4.9126 4.57764e-05 3.16662 4.57764e-05C1.42064 4.57764e-05 0 1.42069 0 3.16667C0 4.91265 1.42066 6.33331 3.16664 6.33331C3.91996 6.33331 4.61162 6.06799 5.15594 5.62732L7.43092 7.9023C7.49592 7.9673 7.58124 7.99997 7.66659 7.99997C7.75193 7.99997 7.83726 7.9673 7.90226 7.9023C8.03258 7.77197 8.03258 7.5613 7.90224 7.43097ZM3.16664 5.66665C1.78798 5.66665 0.666665 4.54533 0.666665 3.16667C0.666665 1.78801 1.78798 0.666695 3.16664 0.666695C4.54529 0.666695 5.66661 1.78801 5.66661 3.16667C5.66661 4.54533 4.54528 5.66665 3.16664 5.66665Z" fill="black"/>
</svg>
